<?xml version="1.0" standalone="no"?>
<!DOCTYPE svg PUBLIC "-//W3C//DTD SVG 20010904//EN"
 "http://www.w3.org/TR/2001/REC-SVG-20010904/DTD/svg10.dtd">
<svg version="1.0" xmlns="http://www.w3.org/2000/svg"
 width="688.000000pt" height="686.000000pt" viewBox="0 0 688.000000 686.000000"
 preserveAspectRatio="xMidYMid meet">

<g transform="translate(0.000000,686.000000) scale(0.100000,-0.100000)"
fill="#000000" stroke="none">
<path d="M2408 5146 c-26 -6 -52 -16 -57 -21 -6 -6 -11 -34 -13 -62 -2 -29 -5
-53 -8 -53 -3 1 -23 24 -44 52 -37 48 -41 50 -77 45 -30 -4 -49 -16 -88 -59
-43 -45 -50 -59 -50 -93 0 -25 7 -50 19 -65 35 -44 27 -51 -50 -44 l-69 7 -12
-29 c-19 -47 -24 -178 -8 -190 16 -12 226 -64 259 -64 35 0 33 -25 -8 -112
-22 -46 -50 -117 -62 -158 -13 -41 -27 -80 -32 -86 -4 -6 -30 -14 -56 -18 -74
-10 -81 -19 -92 -116 -11 -106 -20 -150 -30 -150 -4 0 -44 41 -89 90 -78 84
-85 90 -123 90 -46 0 -67 -10 -125 -57 -42 -34 -43 -35 -43 -97 0 -51 4 -66
21 -82 12 -10 100 -111 196 -222 l175 -204 -7 -566 c-8 -636 -14 -582 65 -612
19 -8 55 -27 79 -42 25 -15 61 -30 80 -34 20 -3 61 -16 91 -29 30 -12 134 -55
230 -95 96 -40 182 -79 191 -86 8 -8 25 -14 37 -14 12 0 30 -4 40 -10 21 -11
128 -56 239 -100 45 -18 88 -39 94 -46 6 -8 19 -14 28 -14 9 0 41 -9 71 -21
60 -23 44 -23 350 7 85 8 218 21 295 29 l140 13 22 -26 c12 -15 35 -42 50 -61
15 -19 50 -52 76 -73 40 -31 57 -38 93 -38 52 0 69 22 61 81 -3 22 -1 41 4 44
4 3 55 -4 111 -16 133 -29 214 -35 234 -18 26 22 13 96 -22 124 l-28 22 25 30
c23 27 43 70 121 258 16 39 35 84 43 100 33 78 151 357 168 399 39 97 50 110
97 119 25 5 51 14 58 19 15 13 16 148 1 182 -12 25 -7 41 96 271 43 96 56 142
53 175 -3 37 -9 41 -183 134 -49 27 -103 59 -118 72 -16 13 -33 24 -38 24 -5
0 -21 8 -36 17 -14 9 -34 18 -45 18 -10 1 -27 9 -36 19 -14 13 -14 20 -4 36 6
11 12 30 12 42 0 27 37 166 51 191 5 10 7 22 4 27 -3 4 8 45 25 90 31 85 39
157 18 178 -19 19 -95 15 -114 -5 -8 -10 -69 -94 -136 -188 -152 -215 -150
-213 -180 -193 -20 13 -25 30 -37 114 -38 291 -138 492 -306 617 -66 50 -70
55 -77 102 -13 89 -70 135 -169 135 -46 0 -63 -5 -96 -29 -23 -16 -53 -46 -68
-65 -33 -43 -46 -44 -90 -10 -36 27 -169 94 -250 125 -73 29 -95 41 -95 55 0
22 69 74 99 74 41 0 55 21 47 75 -7 40 -12 48 -49 66 -37 19 -53 21 -163 17
-91 -4 -129 -9 -148 -21 -14 -10 -32 -17 -40 -17 -21 0 -58 -64 -68 -118 -10
-57 -32 -82 -73 -82 -46 0 -218 -50 -340 -99 -47 -19 -123 -77 -187 -145 l-48
-49 0 31 c0 24 9 40 39 67 21 20 46 50 55 69 13 28 19 32 46 28 17 -2 51 3 75
12 56 22 64 47 61 183 -3 145 -24 162 -158 129z m938 -31 c29 -19 46 -55 32
-71 -5 -7 -24 -15 -42 -18 -23 -5 -51 -25 -92 -68 l-58 -61 85 -27 c110 -36
243 -100 326 -157 l67 -45 20 28 c73 101 142 143 212 129 65 -12 114 -83 114
-166 0 -19 9 -29 36 -42 91 -44 217 -202 268 -334 33 -87 63 -209 79 -320 l12
-88 41 -22 41 -23 154 210 c136 188 156 211 178 208 21 -2 27 -9 29 -34 2 -17
-24 -139 -57 -272 -34 -133 -61 -243 -61 -246 0 -2 69 -41 153 -86 324 -175
317 -170 317 -203 0 -16 -39 -121 -86 -234 -87 -204 -87 -204 -65 -219 17 -12
21 -25 21 -73 0 -65 -11 -81 -54 -82 -17 0 -39 -4 -49 -8 -13 -5 -74 -139
-198 -431 -99 -234 -187 -431 -196 -438 -9 -6 -36 -12 -60 -12 -43 0 -44 -1
-29 -21 8 -12 37 -37 66 -56 43 -29 51 -39 48 -61 -3 -25 -7 -27 -50 -30 -57
-4 -249 41 -296 68 -18 11 -35 20 -38 20 -10 0 -2 -57 11 -80 31 -54 10 -108
-37 -97 -34 9 -131 99 -167 156 -29 45 -35 49 -64 45 -58 -8 -320 -35 -432
-45 -60 -6 -148 -14 -195 -19 l-85 -8 -180 75 c-99 41 -193 80 -210 88 -16 7
-221 93 -455 190 -234 97 -429 180 -434 185 -7 7 -8 908 -1 1104 2 48 -1 52
-62 118 -34 38 -123 142 -198 230 -151 180 -157 194 -102 244 54 52 89 74 112
74 20 0 128 -113 223 -234 12 -16 24 -27 27 -25 2 3 9 74 15 159 6 85 14 158
18 162 4 4 36 14 72 21 57 11 64 16 72 42 75 251 168 403 316 514 105 80 310
160 430 168 l72 6 0 41 c1 54 45 134 89 160 63 36 248 43 297 11z m-813 -50
c4 -33 6 -85 5 -115 -3 -53 -4 -56 -42 -73 -69 -33 -77 -26 -109 97 -16 59
-26 114 -23 122 7 18 62 33 116 31 l45 -2 8 -60z m-231 -95 c32 -58 58 -113
58 -123 0 -10 -14 -39 -32 -63 -48 -68 -63 -62 -158 57 -44 55 -80 108 -80
117 0 9 24 40 53 70 76 77 88 73 159 -58z m-161 -195 l110 -56 -3 -57 c-3 -52
-5 -57 -28 -61 -35 -4 -229 40 -246 56 -17 17 -18 54 -3 108 13 46 26 65 45
65 8 0 64 -25 125 -55z"/>
<path d="M3120 5101 c-77 -15 -130 -83 -133 -170 l-2 -48 -70 -6 c-135 -12
-349 -99 -460 -187 -69 -55 -159 -166 -198 -245 -33 -66 -77 -190 -86 -240 -6
-39 -7 -40 -71 -55 -36 -8 -70 -18 -76 -22 -10 -7 -25 -182 -28 -320 -1 -52
-9 -74 -18 -49 -8 22 -253 301 -264 301 -22 0 -114 -80 -114 -98 0 -19 179
-238 317 -390 l76 -84 -7 -573 -7 -572 38 -16 c21 -9 308 -129 638 -267 l600
-251 355 35 c195 20 365 36 377 36 16 0 34 -17 63 -60 36 -53 129 -140 149
-140 17 0 19 14 6 41 -14 27 -22 159 -9 159 3 0 20 -11 38 -25 42 -32 87 -47
219 -76 134 -28 155 -18 75 35 -30 19 -67 53 -81 73 l-27 38 71 10 71 10 99
235 c299 708 267 640 302 640 70 0 78 7 75 64 -3 50 -4 51 -32 48 -20 -2 -27
1 -23 10 3 7 48 114 101 238 94 220 96 225 77 241 -11 9 -119 70 -240 135
-143 76 -221 123 -221 133 0 9 29 130 65 270 36 140 65 256 65 258 0 2 -6 3
-12 3 -7 0 -82 -97 -167 -215 l-155 -213 -57 28 -57 29 -11 83 c-45 322 -168
562 -336 658 -52 30 -55 34 -55 71 0 83 -47 139 -118 139 -40 0 -99 -46 -151
-119 l-45 -61 -25 23 c-96 89 -372 217 -466 217 -19 0 -35 3 -35 8 0 4 18 32
40 62 47 65 114 120 146 120 37 0 38 18 2 40 -35 21 -131 26 -208 11z m179
-20 c11 -7 9 -10 -7 -15 -47 -15 -194 -200 -175 -220 4 -3 25 -6 48 -6 76 0
261 -74 382 -152 200 -130 301 -309 347 -619 8 -53 21 -113 30 -133 8 -20 14
-36 12 -36 -4 0 -80 31 -83 34 -1 1 4 25 11 54 8 29 11 54 6 57 -15 9 -151
-69 -185 -107 -19 -21 -37 -38 -39 -38 -1 0 3 24 11 53 24 85 27 248 6 346
-10 47 -23 86 -29 88 -7 2 -6 -16 3 -59 7 -35 16 -99 19 -143 l7 -80 -24 21
c-13 11 -54 46 -91 78 -37 32 -66 62 -63 66 3 5 -3 11 -14 15 -10 3 -46 35
-80 70 -35 36 -64 65 -66 65 -2 0 -17 -22 -34 -49 -18 -27 -39 -52 -47 -55 -8
-3 -13 -10 -10 -15 12 -18 -174 -221 -202 -221 -19 0 -142 142 -223 260 l-83
120 -91 -88 c-106 -103 -224 -207 -229 -201 -9 10 43 191 72 253 34 72 38 86
23 86 -17 0 -82 -171 -105 -275 -39 -176 -32 -293 28 -477 14 -40 23 -75 21
-77 -2 -2 -20 6 -40 18 -20 11 -39 21 -42 21 -8 0 4 -194 20 -332 7 -60 10
-108 7 -108 -3 0 -25 28 -49 61 -77 107 -152 312 -167 458 -4 40 -12 75 -18
77 -7 3 -29 -2 -49 -11 -20 -8 -48 -15 -63 -15 l-26 0 39 44 c50 56 100 160
120 245 29 127 53 197 97 286 101 206 220 303 480 394 101 36 220 50 255 32
32 -18 39 -5 12 20 -20 18 -22 28 -17 62 14 86 50 131 119 147 45 11 159 11
176 1z m612 -311 c33 -18 52 -68 46 -124 -3 -28 -8 -59 -12 -68 -4 -11 -3 -18
5 -18 6 0 9 4 6 8 -2 4 -1 14 3 21 7 10 18 8 52 -10 65 -33 103 -64 147 -122
117 -156 169 -315 207 -642 11 -95 23 -151 35 -172 25 -43 12 -42 -30 2 -19
19 -40 35 -48 35 -23 0 -7 -105 27 -174 l29 -58 -39 5 c-50 7 -175 110 -171
141 1 12 34 122 72 245 39 123 70 235 70 248 0 27 -38 48 -109 59 -49 8 -43
18 -106 -199 -23 -81 -45 -150 -48 -153 -14 -14 -117 153 -117 189 0 9 8 18
18 20 13 4 11 5 -5 6 -15 1 -23 7 -23 20 0 10 -3 33 -6 50 -6 27 -4 31 16 31
12 0 35 13 51 29 37 37 41 102 8 137 -20 21 -20 24 -5 46 9 12 16 42 16 66 0
57 -41 102 -93 102 l-34 0 5 48 c4 44 2 51 -24 71 -35 28 -76 22 -114 -14 -26
-25 -27 -25 -43 -7 -16 18 -15 22 34 86 71 95 127 124 180 96z m-103 -243 c2
-10 -3 -17 -12 -17 -18 0 -29 16 -21 31 9 14 29 6 33 -14z m-1052 -145 l31
-47 -78 0 -77 0 41 46 c23 26 44 47 47 48 3 0 19 -21 36 -47z m602 -23 l24
-29 -41 0 c-43 0 -49 8 -29 40 16 25 18 25 46 -11z m542 10 c0 -24 -23 -21
-28 4 -2 10 3 17 12 17 10 0 16 -9 16 -21z m-1130 -59 c10 -7 -11 -10 -70 -10
-59 0 -80 3 -70 10 8 5 40 10 70 10 30 0 62 -5 70 -10z m640 -16 c7 -7 -7 -8
-42 -3 -29 4 -62 8 -73 8 -14 1 -16 4 -7 9 15 10 109 -1 122 -14z m-525 -91
c71 -89 128 -143 150 -143 17 0 170 148 202 194 l20 29 95 -10 96 -10 104 -88
c56 -49 104 -94 106 -102 5 -19 -77 -345 -90 -360 -6 -7 -23 -13 -38 -13 -37
0 -187 -53 -274 -97 -47 -24 -97 -62 -163 -126 l-94 -91 -52 3 c-67 3 -254 38
-333 62 -122 38 -234 132 -234 197 0 37 -1 37 47 17 20 -9 40 -12 44 -8 4 5
-5 45 -21 89 -51 144 -75 319 -52 375 4 10 45 50 91 90 l84 74 124 -1 124 -1
64 -80z m1060 7 c0 -7 -6 -15 -12 -17 -8 -3 -13 4 -13 17 0 13 5 20 13 18 6
-3 12 -11 12 -18z m295 -94 c40 -12 45 -17 44 -42 0 -22 -106 -378 -139 -471
-2 -7 -26 1 -69 23 -65 35 -65 35 -46 54 36 36 70 20 50 -22 -11 -23 -11 -23
9 1 24 26 20 38 -16 52 -23 9 -24 11 -11 27 9 9 13 23 11 29 -4 12 18 99 73
281 13 45 30 82 37 82 7 0 32 -6 57 -14z m-2364 -263 c87 -102 164 -191 169
-197 6 -6 18 -23 27 -38 17 -26 17 -26 -28 -63 l-45 -37 -31 28 c-34 33 -328
378 -342 402 -7 12 1 25 35 54 24 21 47 38 50 38 3 0 77 -84 165 -187z m1965
139 c-15 -28 -14 -67 2 -79 6 -6 24 -13 38 -16 15 -4 36 -15 48 -25 l22 -17
-76 -79 c-42 -43 -74 -83 -72 -90 2 -6 30 -12 66 -13 49 -1 80 -10 139 -38
137 -65 275 -177 344 -278 128 -188 164 -426 115 -747 -40 -256 -92 -410 -182
-541 -41 -61 -39 -67 -16 71 5 30 15 117 22 193 11 125 14 140 35 156 24 19
32 41 15 41 -6 0 -13 -5 -16 -10 -8 -12 -80 -52 -113 -62 -20 -6 -22 -4 -16
10 64 150 77 198 82 314 6 149 -25 348 -55 348 -9 0 -12 -6 -9 -17 12 -41 35
-183 40 -248 l6 -69 -30 36 c-17 20 -45 46 -64 57 -27 17 -32 26 -28 46 5 29
-20 44 -43 25 -15 -12 -25 -3 -90 79 l-19 24 31 -6 c17 -3 42 -9 57 -13 19 -4
26 -2 26 9 0 22 -62 65 -116 79 -42 11 -50 18 -66 56 -22 50 -33 47 -49 -11
-6 -23 -30 -89 -54 -147 -24 -58 -46 -114 -50 -125 -6 -17 -24 -2 -126 103
-65 68 -119 130 -119 137 0 7 -6 18 -14 24 -7 6 -28 46 -46 89 -19 42 -37 81
-41 86 -4 5 -22 -13 -39 -40 -18 -27 -29 -40 -25 -29 31 90 28 111 -18 124
-18 5 -26 10 -19 10 17 1 15 41 -4 48 -9 3 -26 -5 -43 -21 -35 -34 -47 -33
-60 5 -13 38 -45 37 -49 -3 -3 -24 -6 -26 -36 -21 -18 3 -42 0 -54 -6 -19 -10
-92 -166 -92 -197 0 -27 47 -42 165 -54 66 -6 121 -13 122 -14 1 -1 -41 -57
-94 -124 -53 -67 -97 -121 -99 -120 -2 3 20 128 31 176 4 15 1 22 -9 22 -16 0
-28 -47 -46 -180 -13 -88 -3 -288 16 -343 12 -35 12 -37 -5 -28 -10 6 -23 17
-31 25 -14 17 -40 22 -40 7 0 -5 11 -18 25 -29 23 -18 24 -22 15 -78 -6 -33
-10 -126 -10 -209 l-1 -150 -20 37 c-26 50 -83 249 -109 384 -26 135 -36 342
-22 450 15 107 64 258 104 320 18 27 76 93 128 146 82 83 108 103 180 137 158
74 232 93 360 96 66 2 120 -2 128 -7 6 -6 12 -7 13 -2 0 5 2 27 5 49 10 91 12
85 -37 104 -26 10 -56 25 -68 33 l-21 15 33 36 c30 35 146 111 155 103 2 -2
-1 -13 -7 -24z m-179 -142 c12 -11 41 -27 65 -36 l44 -17 -7 -46 c-4 -25 -7
-46 -8 -46 0 0 -37 1 -82 3 l-80 3 20 80 c12 43 22 79 24 79 1 0 12 -9 24 -20z
m361 -88 c-16 -4 -103 17 -103 25 0 2 12 15 28 28 l27 24 32 -37 c24 -29 28
-38 16 -40z m-129 -30 c-5 -25 -12 -32 -31 -32 l-24 0 27 35 c31 41 37 40 28
-3z m97 12 c44 -7 52 -29 21 -57 -15 -14 -24 -15 -57 -5 -51 15 -48 11 -40 48
5 22 11 30 22 26 8 -3 32 -9 54 -12z m-1911 -54 c0 -5 -6 -10 -14 -10 -8 0
-18 5 -21 10 -3 6 3 10 14 10 12 0 21 -4 21 -10z m97 -43 c13 -13 13 -18 -2
-41 -11 -16 -16 -38 -13 -56 6 -42 -12 -55 -56 -40 -48 16 -52 26 -20 53 l27
24 -23 30 c-12 18 -19 36 -15 43 10 16 83 7 102 -13z m39 -99 c9 -29 25 -70
35 -90 23 -46 24 -54 2 -37 -9 8 -35 14 -57 14 -35 0 -41 3 -44 22 -2 12 5 30
16 41 14 14 17 24 10 36 -11 19 -3 66 11 66 5 0 17 -24 27 -52z m282 -68 c20
-13 21 -19 12 -49 -14 -48 -60 -112 -78 -109 -20 4 -28 36 -37 148 l-7 92 44
-34 c24 -18 54 -40 66 -48z m222 -76 c99 -20 106 -25 116 -67 10 -51 35 -107
46 -107 6 0 16 8 23 17 8 11 7 -1 -4 -34 l-16 -51 -73 -6 c-40 -4 -84 -11 -97
-16 -21 -8 -24 -6 -32 28 -9 40 -11 41 -140 98 -46 20 -83 39 -83 41 0 2 13
21 29 41 17 20 33 51 37 67 10 45 10 45 61 25 27 -10 86 -26 133 -36z m590 21
c0 -2 -10 -10 -22 -16 -21 -11 -22 -11 -9 4 13 16 31 23 31 12z m25 -51 c21
-9 19 -34 -10 -106 -44 -107 -33 -102 -181 -84 -70 8 -131 19 -136 24 -5 5 8
47 28 97 l37 88 123 -7 c68 -3 130 -9 139 -12z m-402 -4 c26 0 47 -4 47 -10 0
-5 -23 -32 -51 -60 l-50 -50 -13 32 c-8 18 -17 48 -21 67 -7 32 -6 34 16 28
13 -4 45 -7 72 -7z m503 -117 l20 -48 -58 0 c-32 0 -58 1 -58 3 0 6 65 91 71
92 3 0 14 -21 25 -47z m-882 -20 l29 -9 -32 -23 c-18 -13 -34 -22 -35 -20 -2
2 -7 22 -10 43 -6 32 -5 38 6 29 7 -6 26 -15 42 -20z m96 -37 c0 0 4 -16 9
-34 13 -43 6 -40 -19 8 -16 31 -17 38 -5 34 8 -4 15 -7 15 -8z m800 -22 c24
-15 23 -15 -24 -10 -27 3 -61 6 -75 7 -23 0 -24 1 -6 9 31 13 78 11 105 -6z
m460 -25 c0 -5 -9 -18 -20 -29 -23 -23 -23 -23 -9 18 10 29 29 36 29 11z
m-391 -43 c62 -76 227 -236 243 -236 10 0 21 8 24 18 3 9 21 59 41 110 29 73
40 91 52 87 9 -4 30 -9 46 -12 20 -3 41 -19 62 -46 18 -23 44 -54 58 -70 30
-31 28 -32 -59 -41 -32 -4 -68 -11 -80 -17 -33 -17 -66 -51 -66 -67 0 -16 6
-15 100 12 30 9 64 16 75 16 73 0 164 -62 186 -127 6 -20 9 -57 6 -84 -4 -32
-2 -49 6 -52 8 -3 2 -27 -20 -77 -18 -40 -30 -77 -27 -81 9 -15 58 -10 82 7
13 9 25 14 27 13 2 -2 1 -34 -2 -70 -4 -49 -10 -68 -23 -75 -10 -5 -39 -22
-65 -38 -111 -69 -306 -111 -465 -100 -52 3 -70 1 -60 -6 8 -5 23 -10 33 -10
14 0 17 -10 17 -67 l0 -67 -68 67 -68 68 -65 -50 c-35 -28 -67 -51 -71 -51 -5
0 -8 29 -8 65 0 71 0 70 63 56 20 -5 37 -5 37 -1 0 4 -17 10 -37 14 -42 6
-183 60 -253 96 -112 57 -197 152 -184 204 4 15 13 26 23 26 28 0 30 9 14 48
-10 24 -18 81 -21 162 -4 124 -4 126 21 155 l27 30 -20 -40 c-22 -42 -26 -108
-10 -149 14 -38 30 -32 30 12 0 56 54 142 105 166 81 40 201 27 262 -27 23
-21 53 -17 53 6 0 37 -86 96 -174 118 -33 8 -46 16 -46 29 0 22 -25 44 -41 35
-6 -4 -17 -23 -25 -41 -8 -19 -20 -34 -28 -34 -7 0 -35 -17 -62 -37 l-49 -37
46 54 c25 30 67 83 93 118 l48 63 96 -7 c91 -7 97 -8 121 -38z m1360 10 l22
-23 -38 -77 c-20 -42 -40 -76 -43 -76 -27 1 -27 20 -2 108 14 50 29 92 32 92
4 0 17 -11 29 -24z m-952 -12 c-3 -3 -12 -4 -19 -1 -8 3 -5 6 6 6 11 1 17 -2
13 -5z m88 -9 l30 -15 -35 6 c-19 3 -39 10 -44 15 -15 14 15 10 49 -6z m648
-2 c25 -91 29 -125 15 -139 -12 -12 -19 -4 -52 57 -21 38 -36 71 -35 73 9 5
55 25 61 25 4 1 9 -7 11 -16z m-1814 -70 c-5 -21 -9 -60 -9 -86 0 -33 -5 -49
-15 -54 -9 -3 -23 -19 -32 -36 l-15 -31 -14 26 c-8 15 -22 63 -33 108 l-19 81
22 11 c21 12 105 27 117 21 4 -2 3 -20 -2 -40z m-255 9 c2 -4 27 -114 55 -246
36 -167 49 -249 45 -276 -5 -32 -3 -40 15 -50 17 -9 21 -19 19 -43 -3 -31 -5
-32 -61 -41 -42 -7 -61 -6 -70 3 -18 18 -136 623 -125 638 15 19 112 31 122
15z m2426 -152 c0 -33 -3 -34 -97 -45 -31 -3 -53 -2 -53 4 0 5 -3 16 -6 24 -4
12 9 19 58 30 93 22 98 22 98 -13z m-2180 -102 c0 -46 3 -101 5 -123 l5 -40
-21 45 c-26 53 -36 148 -20 179 22 40 31 21 31 -61z m1900 7 c17 -9 30 -20 30
-26 0 -13 -111 -409 -143 -509 -22 -72 -25 -75 -53 -74 -16 1 -49 7 -73 14
-42 11 -43 12 -38 46 4 21 16 43 32 56 23 18 25 26 20 58 -5 28 8 89 51 250
l57 212 44 -6 c24 -3 57 -13 73 -21z m-2566 -146 c8 -56 0 -73 -30 -67 -16 3
-20 14 -22 61 -3 54 -2 57 21 57 22 0 25 -6 31 -51z m2352 -4 c7 -38 -17 -122
-45 -157 -18 -21 -18 -20 -6 43 7 35 16 85 20 112 7 53 21 54 31 2z m-2076
-45 c0 -75 -6 -90 -38 -90 -25 0 -25 1 -19 63 8 81 14 96 38 90 16 -5 19 -14
19 -63z m-394 -42 c-4 -26 -15 -73 -25 -105 l-19 -58 -1 106 c-1 110 8 140 37
117 10 -9 12 -25 8 -60z m270 -65 c6 -49 10 -56 35 -65 22 -8 29 -16 29 -36 0
-34 -19 -164 -24 -170 -2 -2 -18 4 -35 13 -25 13 -30 20 -26 40 3 14 7 36 10
50 4 18 1 25 -9 25 -21 0 -25 10 -41 102 -20 109 -19 116 8 120 31 5 45 -15
53 -79z m414 56 c0 -5 -4 -9 -10 -9 -5 0 -10 7 -10 16 0 8 5 12 10 9 6 -3 10
-10 10 -16z m90 -66 l55 -36 30 -106 c17 -58 32 -112 33 -120 2 -7 -46 24
-107 70 -78 60 -108 88 -104 99 12 29 4 75 -17 89 -23 15 -26 37 -7 44 22 9
61 -5 117 -40z m-666 -33 c0 -53 -6 -140 -9 -140 -7 0 -65 23 -65 25 0 18 23
162 27 168 3 4 15 7 26 5 20 -3 22 -9 21 -58z m396 -29 c15 -71 9 -94 -22 -89
-13 2 -22 6 -22 11 1 4 5 39 9 77 4 38 10 68 15 65 4 -2 13 -31 20 -64z m2170
21 c0 -15 -9 -45 -19 -67 -18 -38 -19 -38 -20 -13 -1 38 21 118 31 112 4 -3 8
-17 8 -32z m-2245 -11 c3 -6 2 -53 -1 -106 l-7 -96 -31 3 -31 3 2 70 c4 114
10 135 38 135 13 0 26 -4 30 -9z m635 -107 c0 -3 -7 -32 -15 -63 -8 -31 -15
-73 -17 -93 -1 -21 -7 -38 -13 -38 -28 0 -35 27 -35 132 l0 108 40 -20 c22
-11 40 -23 40 -26z m1375 -4 c-10 -11 -26 -20 -37 -20 -10 0 -18 -4 -18 -10 0
-5 4 -10 9 -10 6 0 6 -13 1 -32 -5 -18 -8 -41 -7 -50 1 -12 -15 -28 -50 -48
l-51 -30 38 83 c21 45 41 96 44 113 8 37 52 59 75 38 13 -12 12 -16 -4 -34z
m-1861 -22 c3 -18 7 -61 10 -94 l5 -62 -30 -6 c-17 -3 -35 -3 -40 0 -10 6 -12
177 -2 187 3 4 17 7 29 7 18 0 24 -7 28 -32z m535 18 c9 -8 40 -26 69 -41 l53
-26 -50 -55 c-28 -30 -67 -82 -88 -116 l-38 -62 -3 75 c-3 68 23 239 36 239 3
0 13 -6 21 -14z m1084 -111 c-8 -60 -20 -115 -26 -121 -7 -6 -36 -20 -64 -32
l-53 -21 0 98 0 98 49 22 c27 13 61 34 77 46 16 13 30 22 30 22 1 -1 -5 -51
-13 -112z m-887 19 c14 -4 24 -10 22 -14 -2 -5 -43 -50 -91 -100 -79 -81 -100
-96 -103 -72 0 4 -4 15 -8 24 -6 12 2 31 25 60 56 73 103 119 117 113 8 -3 25
-8 38 -11z m720 -131 c-3 -65 -11 -122 -16 -127 -7 -7 -10 -3 -10 9 -1 31 -37
105 -75 151 -41 50 -42 54 -12 55 12 0 38 7 57 14 65 25 64 27 56 -102z m-676
47 l0 -60 -47 -30 c-43 -27 -113 -41 -113 -23 0 5 148 167 158 172 1 0 2 -26
2 -59z m392 13 c5 -2 90 -150 106 -184 1 -3 -14 -3 -34 0 -22 4 -56 23 -89 51
-50 42 -54 48 -54 91 -1 25 2 49 5 52 6 6 49 0 66 -10z m153 -25 c32 -38 75
-107 75 -123 0 -3 -6 -5 -14 -5 -7 0 -25 -11 -39 -24 -24 -22 -27 -23 -40 -7
-21 24 -107 176 -107 189 0 7 18 12 44 12 40 0 48 -4 81 -42z m654 17 c0 -5
-13 -41 -28 -79 l-28 -69 -6 54 c-13 104 -12 109 28 106 19 -1 35 -6 34 -12z
m-964 -72 c57 -60 66 -66 77 -51 12 15 17 14 51 -17 l39 -34 -39 -6 c-21 -3
-77 -13 -124 -21 l-86 -16 -99 37 c-54 20 -105 38 -113 41 -21 7 46 46 67 40
11 -4 42 13 82 44 36 27 69 49 73 50 4 0 37 -30 72 -67z m849 40 c2 -16 7 -46
11 -68 3 -22 8 -48 11 -57 4 -15 -1 -18 -30 -18 -39 0 -40 1 -55 98 -7 44 -5
54 8 62 30 17 49 11 55 -17z m-1274 -152 c0 -21 3 -53 6 -71 7 -30 6 -32 -17
-25 -40 12 -43 21 -30 80 15 67 41 77 41 16z m294 -36 c38 -16 39 -17 20 -35
-13 -13 -41 -21 -91 -26 l-73 -7 0 61 0 61 53 -19 c28 -10 70 -26 91 -35z
m256 -9 c0 -21 -5 -24 -67 -29 -104 -10 -133 -9 -133 6 0 9 22 19 58 27 31 7
62 14 67 15 6 2 25 4 43 4 27 1 32 -2 32 -23z m188 6 c2 -7 -3 -12 -12 -12 -9
0 -16 7 -16 16 0 17 22 14 28 -4z m532 -102 c0 -5 -4 -10 -10 -10 -5 0 -10 5
-10 10 0 6 5 10 10 10 6 0 10 -4 10 -10z"/>
<path d="M3150 4481 c0 -6 4 -13 10 -16 6 -3 7 1 4 9 -7 18 -14 21 -14 7z"/>
<path d="M3173 4415 c0 -22 2 -30 4 -17 2 12 2 30 0 40 -3 9 -5 -1 -4 -23z"/>
<path d="M3093 4403 c-12 -13 -19 -23 -14 -23 10 0 46 39 40 43 -2 2 -14 -7
-26 -20z"/>
<path d="M2960 4416 c0 -2 8 -10 18 -17 15 -13 16 -12 3 4 -13 16 -21 21 -21
13z"/>
<path d="M3133 4333 c-17 -18 -28 -33 -24 -33 9 0 66 59 60 63 -2 1 -18 -12
-36 -30z"/>
<path d="M2920 4336 c0 -2 8 -10 18 -17 15 -13 16 -12 3 4 -13 16 -21 21 -21
13z"/>
<path d="M3038 4333 c6 -2 18 -2 25 0 6 3 1 5 -13 5 -14 0 -19 -2 -12 -5z"/>
<path d="M3081 4324 c0 -11 3 -14 6 -6 3 7 2 16 -1 19 -3 4 -6 -2 -5 -13z"/>
<path d="M4012 4548 c20 -11 42 -31 49 -44 7 -13 14 -22 16 -20 15 15 -62 86
-92 86 -5 0 6 -10 27 -22z"/>
<path d="M4081 4454 c0 -11 3 -14 6 -6 3 7 2 16 -1 19 -3 4 -6 -2 -5 -13z"/>
<path d="M4091 4414 c0 -11 3 -14 6 -6 3 7 2 16 -1 19 -3 4 -6 -2 -5 -13z"/>
<path d="M4076 4345 c-6 -28 -2 -41 18 -68 14 -18 29 -44 35 -57 8 -21 10 -22
10 -5 0 11 -13 38 -29 59 -25 32 -29 46 -24 73 3 18 4 33 1 33 -3 0 -8 -16
-11 -35z"/>
<path d="M4132 4165 c0 -16 2 -22 5 -12 2 9 2 23 0 30 -3 6 -5 -1 -5 -18z"/>
<path d="M4115 4111 c-8 -26 -60 -66 -111 -86 -31 -12 -33 -14 -9 -10 55 11
152 92 132 111 -3 3 -8 -4 -12 -15z"/>
<path d="M2615 4101 c-7 -31 -32 -41 -105 -41 -48 0 -100 -18 -100 -36 0 -19
32 -34 73 -34 l34 0 5 -97 c8 -157 47 -223 132 -223 22 0 52 6 66 13 35 18 59
91 66 207 l7 98 33 7 c19 3 34 10 34 14 0 17 -53 43 -112 55 -39 8 -64 19 -70
30 -10 18 -6 18 63 12 60 -6 72 -5 61 5 -7 8 -45 14 -96 16 l-84 3 -7 -29z
m71 -196 c10 -16 14 -34 10 -51 -5 -20 -1 -31 20 -50 20 -20 25 -31 19 -52 -9
-38 -32 -52 -87 -52 -37 0 -50 4 -58 19 -16 31 -12 66 10 86 16 14 19 26 14
47 -7 32 17 78 41 78 8 0 22 -11 31 -25z"/>
<path d="M3265 4120 c-4 -6 15 -10 49 -10 l56 0 -12 -25 c-10 -22 -17 -25 -68
-25 -53 0 -115 -14 -133 -30 -16 -14 6 -39 36 -42 l31 -3 4 -70 c1 -38 7 -94
13 -122 22 -112 127 -159 193 -88 35 38 59 131 54 209 l-4 66 52 0 c29 0 55 4
59 9 9 16 -51 51 -100 58 -52 7 -78 27 -70 53 4 13 -2 19 -26 24 -48 9 -127 7
-134 -4z m120 -210 c12 -13 16 -29 13 -51 -4 -26 1 -37 24 -58 27 -24 29 -29
18 -53 -22 -48 -103 -65 -140 -28 -27 27 -25 64 4 87 18 14 22 26 19 50 -5 34
11 73 31 73 7 0 21 -9 31 -20z"/>
<path d="M2993 3607 c-44 -46 -57 -75 -42 -93 13 -16 55 -19 64 -4 3 6 -5 10
-19 10 -14 0 -27 4 -30 8 -6 9 51 82 63 82 4 0 16 -15 26 -34 16 -29 17 -37 6
-50 -12 -14 -10 -16 7 -16 12 0 24 4 27 10 7 12 -27 79 -52 102 -19 17 -21 16
-50 -15z"/>
<path d="M3086 3347 c-24 -17 -15 -51 11 -44 10 3 31 8 46 11 20 5 27 12 25
24 -4 22 -56 28 -82 9z m64 -11 c0 -2 -11 -6 -25 -8 -14 -3 -25 -1 -25 3 0 5
11 9 25 9 14 0 25 -2 25 -4z"/>
<path d="M3235 3340 c-10 -16 23 -60 45 -60 30 0 34 19 9 46 -24 26 -44 31
-54 14z m45 -25 c7 -8 8 -15 2 -15 -5 0 -15 7 -22 15 -7 8 -8 15 -2 15 5 0 15
-7 22 -15z"/>
<path d="M3130 3283 c1 -20 19 -35 35 -29 10 3 23 2 30 -4 16 -13 45 -2 45 17
0 13 -3 13 -16 2 -13 -10 -17 -10 -24 0 -4 8 -16 11 -29 6 -12 -4 -21 -2 -21
4 0 6 -4 11 -10 11 -5 0 -10 -3 -10 -7z"/>
<path d="M3410 3020 c0 -5 10 -10 23 -10 13 0 32 -7 43 -15 22 -17 34 -19 34
-5 0 13 -54 40 -80 40 -11 0 -20 -4 -20 -10z"/>
<path d="M3893 2953 c-7 -2 -13 -9 -13 -13 0 -11 71 -1 85 11 10 10 -51 11
-72 2z"/>
<path d="M3264 2871 c-98 -59 -111 -222 -25 -313 32 -35 43 -40 80 -40 93 1
155 82 155 202 0 72 -18 116 -60 149 -35 27 -107 28 -150 2z m97 -112 c6 -12
9 -36 6 -54 -4 -27 -1 -34 19 -43 81 -37 -6 -142 -98 -118 -24 6 -58 56 -58
84 0 22 30 52 52 52 14 0 18 8 18 32 0 30 23 68 41 68 5 0 13 -10 20 -21z"/>
<path d="M3926 2780 c-47 -42 -70 -104 -64 -177 8 -115 73 -191 153 -178 56 9
77 25 108 86 21 43 27 68 27 122 0 118 -48 177 -144 177 -36 0 -52 -6 -80 -30z
m110 -137 c4 -13 2 -34 -4 -47 -8 -18 -5 -26 14 -43 50 -45 17 -103 -58 -103
-48 0 -78 28 -78 73 0 38 15 57 45 57 18 0 21 5 17 30 -9 59 50 89 64 33z"/>
<path d="M3540 2469 c-54 -11 -75 -41 -74 -104 0 -60 22 -95 58 -95 19 0 19 2
-7 23 -37 29 -43 102 -12 137 19 21 26 22 100 16 64 -4 83 -9 93 -25 11 -17
18 -18 38 -9 31 14 51 -2 60 -49 9 -45 -10 -80 -53 -95 -40 -14 -44 -33 -5
-24 15 4 40 21 56 38 24 26 27 37 23 70 -8 60 -33 91 -66 85 -16 -3 -33 -1
-40 6 -17 17 -131 34 -171 26z"/>
<path d="M3531 2081 l-32 -30 26 -50 c14 -28 29 -51 33 -51 4 0 25 20 45 45
l38 45 -27 35 c-14 19 -32 35 -39 35 -7 0 -27 -13 -44 -29z m64 -17 c16 -25
16 -27 -6 -50 -29 -31 -35 -30 -47 5 -8 24 -7 32 11 50 12 11 22 21 23 21 1 0
9 -12 19 -26z"/>
<path d="M2435 5098 c-22 -6 -41 -12 -43 -13 -2 -1 7 -46 19 -99 24 -103 28
-107 80 -81 29 16 29 16 23 88 -10 128 -6 123 -79 105z m58 -94 c5 -68 5 -72
-19 -82 -21 -10 -24 -9 -30 16 -3 15 -12 51 -19 79 l-13 53 31 9 c18 4 35 5
38 2 4 -3 9 -38 12 -77z"/>
<path d="M2167 5012 c-26 -26 -47 -51 -47 -55 0 -11 142 -187 151 -187 10 0
59 64 59 77 0 10 -96 192 -109 205 -4 5 -28 -14 -54 -40z m128 -188 c-9 -14
-20 -24 -25 -22 -4 2 -35 37 -68 78 l-61 75 37 37 36 38 49 -91 c47 -87 48
-91 32 -115z"/>
<path d="M2000 4758 c-6 -23 -13 -48 -15 -55 -6 -19 16 -30 100 -51 150 -37
135 -39 135 11 l0 44 -92 43 c-51 23 -98 44 -105 47 -7 3 -16 -12 -23 -39z
m120 -28 c60 -30 80 -45 80 -60 0 -11 -6 -20 -12 -20 -21 1 -169 37 -175 43
-9 9 7 77 18 77 5 0 45 -18 89 -40z"/>
</g>
</svg>
